<?xml version="1.0" encoding="UTF-8" standalone="no"?>
<!-- Created with Inkscape (http://www.inkscape.org/) -->

<svg
   xmlns:dc="http://purl.org/dc/elements/1.1/"
   xmlns:cc="http://creativecommons.org/ns#"
   xmlns:rdf="http://www.w3.org/1999/02/22-rdf-syntax-ns#"
   xmlns:svg="http://www.w3.org/2000/svg"
   xmlns="http://www.w3.org/2000/svg"
   xmlns:sodipodi="http://sodipodi.sourceforge.net/DTD/sodipodi-0.dtd"
   xmlns:inkscape="http://www.inkscape.org/namespaces/inkscape"
   width="256"
   height="256"
   viewBox="0 0 67.733332 67.733335"
   version="1.1"
   id="svg8"
   sodipodi:docname="deepdash.svg"
   inkscape:version="0.92.3 (2405546, 2018-03-11)">
  <sodipodi:namedview
     pagecolor="#ffffff"
     bordercolor="#666666"
     borderopacity="1"
     objecttolerance="10"
     gridtolerance="10"
     guidetolerance="10"
     inkscape:pageopacity="0"
     inkscape:pageshadow="2"
     inkscape:window-width="1600"
     inkscape:window-height="847"
     id="namedview18"
     showgrid="true"
     showguides="true"
     inkscape:snap-perpendicular="true"
     inkscape:zoom="1.2402344"
     inkscape:cx="-36.147387"
     inkscape:cy="59.386164"
     inkscape:window-x="0"
     inkscape:window-y="0"
     inkscape:window-maximized="1"
     inkscape:current-layer="layer1">
    <inkscape:grid
       type="xygrid"
       id="grid20"
       spacingx="4.2333333"
       spacingy="4.2333333" />
  </sodipodi:namedview>
  <defs
     id="defs2" />
  <metadata
     id="metadata5">
    <rdf:RDF>
      <cc:Work
         rdf:about="">
        <dc:format>image/svg+xml</dc:format>
        <dc:type
           rdf:resource="http://purl.org/dc/dcmitype/StillImage" />
        <dc:title></dc:title>
      </cc:Work>
    </rdf:RDF>
  </metadata>
  <g
     inkscape:label="Layer 1"
     inkscape:groupmode="layer"
     id="layer1"
     transform="translate(0,-229.26665)">
    <g
       aria-label="D"
       transform="matrix(0.2775071,0,0,0.29361836,6.3322369,220.28429)"
       style="font-style:normal;font-weight:normal;font-size:200px;line-height:1.25;font-family:sans-serif;letter-spacing:0px;word-spacing:0px;fill:#000000;fill-opacity:1;stroke:none"
       id="flowRoot18">
      <path
         d="M 57.927734,61.220703 V 174.59961 h 23.828125 q 30.175781,0 44.140621,-13.67188 14.0625,-13.67187 14.0625,-43.16406 0,-29.296873 -14.0625,-42.871092 Q 111.93164,61.220703 81.755859,61.220703 Z M 38.201172,45.009766 h 40.527344 q 42.382814,0 62.207034,17.675781 19.82422,17.578125 19.82422,55.078123 0,37.69531 -19.92188,55.3711 -19.92187,17.67578 -62.109374,17.67578 H 38.201172 Z"
         id="path22"
         inkscape:connector-curvature="0" />
    </g>
    <g
       aria-label="≂"
       style="font-style:normal;font-weight:normal;font-size:48.81752014px;line-height:1.25;font-family:sans-serif;letter-spacing:0px;word-spacing:0px;fill:#000000;fill-opacity:1;stroke:none;stroke-width:1.220438"
       id="text28"
       transform="matrix(1.1082524,0,0,0.80971478,-3.617786,55.418406)">
      <path
         d="m 49.102341,284.75906 v 4.26677 q -2.502852,1.85926 -4.648153,2.69354 -2.121464,0.81045 -4.433622,0.81045 -2.622035,0 -6.10219,-1.40636 l -0.405224,-0.16686 q -0.14302,-0.0477 -0.50057,-0.19069 -3.694686,-1.45404 -5.935333,-1.45404 -2.097628,0 -4.147583,0.90579 -2.049954,0.9058 -4.385949,2.90808 v -4.26677 q 2.502852,-1.85926 4.624316,-2.66971 2.145301,-0.83428 4.457459,-0.83428 2.622035,0 6.126027,1.40636 0.262203,0.11919 0.381387,0.16686 0.14302,0.0477 0.50057,0.19069 3.694685,1.45404 5.935333,1.45404 2.049955,0 4.052236,-0.88196 2.026118,-0.90579 4.481296,-2.93191 z M 18.543717,277.4412 h 30.558624 v 4.00456 H 18.543717 Z"
         style="stroke-width:1.220438"
         id="path25"
         inkscape:connector-curvature="0" />
    </g>
  </g>
</svg>
