<?xml version="1.0" encoding="UTF-8" standalone="no"?>
<!-- Created with Inkscape (http://www.inkscape.org/) -->

<svg
   xmlns:dc="http://purl.org/dc/elements/1.1/"
   xmlns:cc="http://creativecommons.org/ns#"
   xmlns:rdf="http://www.w3.org/1999/02/22-rdf-syntax-ns#"
   xmlns:svg="http://www.w3.org/2000/svg"
   xmlns="http://www.w3.org/2000/svg"
   xmlns:sodipodi="http://sodipodi.sourceforge.net/DTD/sodipodi-0.dtd"
   xmlns:inkscape="http://www.inkscape.org/namespaces/inkscape"
   width="600"
   height="150"
   viewBox="0 0 158.75 39.687501"
   version="1.1"
   id="svg8"
   inkscape:version="0.92.3 (2405546, 2018-03-11)"
   sodipodi:docname="deepdash.full.svg">
  <g
     inkscape:label="Layer 1"
     inkscape:groupmode="layer"
     id="layer1"
     transform="translate(0,-257.31249)">
    <g
       aria-label="Deepdash
≂"
       transform="matrix(0.34059868,0,0,0.34059868,-4.6659797,263.2522)"
       style="font-style:normal;font-weight:normal;font-size:96px;line-height:0.55000001;font-family:sans-serif;letter-spacing:0px;word-spacing:0px;fill:#000000;fill-opacity:1;stroke:none"
       id="flowRoot815">
      <path
         d="m 213.67578,49.177344 v 27.84375 h -8.67187 V 4.5523443 h 8.67187 v 7.9687497 q 2.71875,-4.6874997 6.84375,-6.9374997 4.17188,-2.296875 9.9375,-2.296875 9.5625,0 15.51563,7.5937497 6,7.59375 6,19.96875 0,12.375 -6,19.96875 -5.95313,7.59375 -15.51563,7.59375 -5.76562,0 -9.9375,-2.25 -4.125,-2.296875 -6.84375,-6.984375 z m 29.34375,-18.328125 q 0,-9.515625 -3.9375,-14.90625 -3.89062,-5.4375 -10.73437,-5.4375 -6.84375,0 -10.78125,5.4375 -3.89063,5.390625 -3.89063,14.90625 0,9.515625 3.89063,14.953125 3.9375,5.390625 10.78125,5.390625 6.84375,0 10.73437,-5.390625 3.9375,-5.4375 3.9375,-14.953125 z"
         style="font-size:96px;line-height:0.54000002;fill:#ffffff"
         id="path831" />
      <path
         id="path839"
         style="font-size:96px;line-height:0.54000002;fill:#ffffff;stroke-width:1.00001717"
         d="m 479.79346,23.81097 v 31.6875 h -8.62529 V 24.09222 q 0,-7.453125 -2.90635,-11.156249 -2.90635,-3.7031254 -8.71905,-3.7031254 -6.98462,0 -11.01601,4.4531244 -4.03139,4.453125 -4.03139,12.140625 V 55.49847 h -8.67217 v -72.9375 h 8.67217 v 28.593751 q 3.09386,-4.7343746 7.26588,-7.0781246 4.2189,-2.34375 9.70345,-2.34375 9.04719,0 13.68797,5.625 4.64079,5.5781246 4.64079,16.4531236 z M 419.55702,4.5453464 v 8.1562496 q -3.65638,-1.875 -7.59401,-2.8125004 -3.93764,-0.937499 -8.15653,-0.937499 -6.42209,0 -9.65658,1.9687494 -3.18761,1.96875 -3.18761,5.906249 0,3 2.29695,4.734375 2.29695,1.6875 9.23469,3.234375 l 2.95323,0.65625 q 9.18782,1.96875 13.0317,5.578125 3.89075,3.5625 3.89075,9.984375 0,7.3125 -5.8127,11.578125 -5.76581,4.265625 -15.89116,4.265625 -4.2189,0 -8.8128,-0.84375 -4.54704,-0.796875 -9.60971,-2.4375 v -8.90625 q 4.78141,2.484375 9.4222,3.75 4.64078,1.21875 9.18781,1.21875 6.09396,0 9.37533,-2.0625 3.28136,-2.109375 3.28136,-5.90625 0,-3.515625 -2.39071,-5.390625 -2.34383,-1.875 -10.35973,-3.609375 l -3.0001,-0.703125 q -8.01591,-1.6875 -11.57853,-5.15625 -3.56262,-3.515625 -3.56262,-9.609375 0,-7.4062494 5.25018,-11.4374986 5.25018,-4.03125 14.90676,-4.03125 4.78141,0 9.00031,0.703125 4.21889,0.703125 7.78152,2.109375 z M 351.0703,29.107845 q -10.45349,0 -14.48488,2.390625 -4.03139,2.390625 -4.03139,8.15625 0,4.59375 3.00011,7.3125 3.04698,2.671875 8.25028,2.671875 7.17212,0 11.48477,-5.0625 4.35952,-5.109375 4.35952,-13.546875 v -1.921875 z m 17.20371,-3.5625 V 55.49847 h -8.6253 v -7.96875 q -2.95322,4.78125 -7.35962,7.078125 -4.4064,2.25 -10.78162,2.25 -8.06278,0 -12.84419,-4.5 -4.73454,-4.546875 -4.73454,-12.140625 0,-8.859375 5.90645,-13.359375 5.95333,-4.5 17.71936,-4.5 h 12.09416 v -0.84375 q 0,-5.953125 -3.93763,-9.187499 -3.89076,-3.2812504 -10.96913,-3.2812504 -4.50015,0 -8.76592,1.0781254 -4.26578,1.078125 -8.20341,3.234374 V 5.3890964 q 4.73454,-1.828125 9.18781,-2.71875 4.45329,-0.9375 8.67218,-0.9375 11.39101,0 17.0162,5.90625 5.6252,5.9062486 5.6252,17.9062486 z M 300.81857,10.967221 V -17.43903 h 8.6253 v 72.9375 h -8.6253 v -7.875 q -2.71884,4.6875 -6.89086,6.984375 -4.12514,2.25 -9.93784,2.25 -9.51595,0 -15.51615,-7.59375 -5.95334,-7.59375 -5.95334,-19.96875 0,-12.375 5.95334,-19.9687494 6.0002,-7.5937492 15.51615,-7.5937492 5.8127,0 9.93784,2.296875 4.17202,2.25 6.89086,6.9374996 z m -29.39163,18.328124 q 0,9.515625 3.89076,14.953125 3.93764,5.390625 10.78162,5.390625 6.84398,0 10.78162,-5.390625 3.93763,-5.4375 3.93763,-14.953125 0,-9.515625 -3.93763,-14.90625 -3.93764,-5.4374984 -10.78162,-5.4374984 -6.84398,0 -10.78162,5.4374984 -3.89076,5.390625 -3.89076,14.90625 z M 191.17419,27.09222 v 4.21875 h -39.65761 q 0.56251,8.90625 5.34393,13.59375 4.82829,4.640625 13.40671,4.640625 4.96892,0 9.60971,-1.21875 4.68766,-1.21875 9.28157,-3.65625 v 8.15625 q -4.64079,1.96875 -9.51596,3 -4.87517,1.03125 -9.89096,1.03125 -12.56293,0 -19.92256,-7.3125 -7.31275,-7.3125 -7.31275,-19.78125 0,-12.890625 6.93773,-20.4374994 6.98462,-7.5937492 18.79753,-7.5937492 10.59411,0 16.73494,6.8437497 6.18772,6.7968739 6.18772,18.5156239 z m -8.6253,-2.53125 q -0.0937,-7.078125 -3.98451,-11.296875 -3.84388,-4.2187494 -10.2191,-4.2187494 -7.21899,0 -11.57852,4.0781244 -4.31265,4.078125 -4.96892,11.484375 z m -50.43923,2.53125 v 4.21875 H 92.452048 q 0.56252,8.90625 5.343934,13.59375 4.828298,4.640625 13.406708,4.640625 4.96892,0 9.60971,-1.21875 4.68766,-1.21875 9.28157,-3.65625 v 8.15625 q -4.64079,1.96875 -9.51596,3 -4.87516,1.03125 -9.89095,1.03125 -12.562942,0 -19.92257,-7.3125 -7.31275,-7.3125 -7.31275,-19.78125 0,-12.890625 6.937738,-20.4374994 6.984614,-7.5937492 18.797522,-7.5937492 10.59412,0 16.73495,6.8437497 6.18771,6.7968739 6.18771,18.5156239 z m -8.6253,-2.53125 q -0.0937,-7.078125 -3.9845,-11.296875 -3.84388,-4.2187494 -10.2191,-4.2187494 -7.219,0 -11.578532,4.0781244 -4.312648,4.078125 -4.96892,11.484375 z M 23.168423,-6.7046536 V 47.71722 h 11.437892 q 14.484872,0 21.188226,-6.5625 6.750232,-6.5625 6.750232,-20.71875 0,-14.0624986 -6.750232,-20.57812361 Q 49.091187,-6.7046536 34.606315,-6.7046536 Z M 13.699348,-14.485905 H 33.15314 q 20.344448,0 29.860399,8.4843764 9.515951,8.4375 9.515951,26.4374986 0,18.09375 -9.562828,26.578125 Q 53.403834,55.49847 33.15314,55.49847 H 13.699348 Z"
         inkscape:connector-curvature="0" />
      <path
         style="font-size:96px;line-height:0.54000002;fill:#3492ff;stroke-width:0.98896176;fill-opacity:1"
         d="m 13.699348,66.355699 h 58.774414 v 7.875 H 13.699348 Z"
         id="path864" />
      <path
         style="font-size:96px;line-height:0.54000002;fill:#3492ff;stroke-width:0.98896176;fill-opacity:1"
         d="m 72.473762,80.746324 v 8.390625 q -4.813817,3.65625 -8.939946,5.296875 -4.080283,1.59375 -8.527333,1.59375 -5.043046,0 -11.736544,-2.765625 l -0.77938,-0.328125 q -0.275076,-0.09375 -0.962764,-0.375 -7.106111,-2.859375 -11.415623,-2.859375 -4.034437,0 -7.977183,1.78125 -3.942745,1.78125 -8.435641,5.71875 v -8.390625 q 4.813817,-3.65625 8.8941,-5.25 4.126129,-1.640625 8.573179,-1.640625 5.043047,0 11.78239,2.765625 0.504305,0.234375 0.733534,0.328125 0.275076,0.09375 0.962764,0.375 7.106111,2.859375 11.415623,2.859375 3.942746,0 7.793799,-1.734375 3.8969,-1.78125 8.619025,-5.765625 z"
         id="path841" />
    </g>
  </g>
</svg>
